<?xml version="1.0" encoding="UTF-8" standalone="no"?>
<!DOCTYPE svg PUBLIC "-//W3C//DTD SVG 1.1//EN" "http://www.w3.org/Graphics/SVG/1.1/DTD/svg11.dtd">
<svg width="100%" height="100%" viewBox="0 0 765 765" version="1.1" xmlns="http://www.w3.org/2000/svg" xmlns:xlink="http://www.w3.org/1999/xlink" xml:space="preserve" xmlns:serif="http://www.serif.com/" style="fill-rule:evenodd;clip-rule:evenodd;stroke-linecap:round;stroke-linejoin:round;stroke-miterlimit:1.5;">
    <g transform="matrix(0.966021,0,0,0.966021,-226.581,-394.87)">
        <circle cx="630.171" cy="804.38" r="395.62"/>
    </g>
    <g transform="matrix(0.780898,0,0,0.780898,-109.922,-245.961)">
        <circle cx="630.171" cy="804.38" r="395.62" style="fill:none;stroke:white;stroke-width:36.45px;stroke-dasharray:72.91,72.91,0,0;"/>
    </g>
    <g transform="matrix(494.075,0,0,494.075,171.569,568.541)">
        <path d="M0.096,-0.023C0.097,-0.029 0.099,-0.034 0.101,-0.04C0.104,-0.045 0.106,-0.051 0.109,-0.057C0.112,-0.064 0.115,-0.071 0.119,-0.08C0.122,-0.089 0.125,-0.1 0.128,-0.114L0.147,-0.192C0.152,-0.211 0.157,-0.23 0.162,-0.25C0.167,-0.269 0.172,-0.292 0.179,-0.316C0.184,-0.336 0.19,-0.357 0.198,-0.379C0.205,-0.4 0.212,-0.423 0.22,-0.446C0.228,-0.469 0.236,-0.493 0.245,-0.517C0.253,-0.542 0.26,-0.567 0.267,-0.593C0.267,-0.594 0.267,-0.595 0.267,-0.597C0.267,-0.599 0.266,-0.601 0.265,-0.602C0.263,-0.602 0.261,-0.603 0.258,-0.603C0.25,-0.603 0.243,-0.604 0.238,-0.606C0.233,-0.609 0.228,-0.612 0.225,-0.616C0.222,-0.62 0.22,-0.624 0.219,-0.629C0.217,-0.634 0.217,-0.639 0.217,-0.645C0.217,-0.659 0.219,-0.671 0.222,-0.679C0.225,-0.688 0.23,-0.695 0.235,-0.699C0.24,-0.704 0.246,-0.708 0.253,-0.71C0.259,-0.712 0.265,-0.714 0.271,-0.715C0.277,-0.716 0.283,-0.718 0.287,-0.719C0.292,-0.72 0.295,-0.723 0.297,-0.727C0.3,-0.734 0.303,-0.741 0.306,-0.749C0.309,-0.756 0.312,-0.764 0.316,-0.77C0.321,-0.777 0.326,-0.782 0.332,-0.786C0.338,-0.79 0.346,-0.792 0.356,-0.792C0.364,-0.792 0.37,-0.791 0.375,-0.787C0.381,-0.783 0.386,-0.778 0.39,-0.772C0.394,-0.766 0.397,-0.76 0.4,-0.753C0.403,-0.747 0.406,-0.74 0.408,-0.735C0.442,-0.734 0.471,-0.732 0.495,-0.729C0.52,-0.726 0.538,-0.723 0.551,-0.721C0.575,-0.717 0.6,-0.71 0.624,-0.701C0.649,-0.692 0.671,-0.68 0.691,-0.665C0.71,-0.651 0.726,-0.634 0.739,-0.614C0.752,-0.594 0.758,-0.572 0.758,-0.546C0.758,-0.533 0.756,-0.52 0.753,-0.506L0.75,-0.489C0.747,-0.475 0.742,-0.462 0.734,-0.451C0.725,-0.439 0.716,-0.428 0.706,-0.419C0.677,-0.392 0.645,-0.37 0.61,-0.352C0.576,-0.334 0.54,-0.319 0.502,-0.306C0.465,-0.294 0.427,-0.283 0.388,-0.275C0.349,-0.266 0.31,-0.258 0.272,-0.251L0.258,-0.249C0.251,-0.248 0.246,-0.245 0.245,-0.241C0.239,-0.218 0.233,-0.199 0.23,-0.182C0.226,-0.165 0.222,-0.149 0.219,-0.133C0.216,-0.118 0.213,-0.102 0.209,-0.087C0.206,-0.071 0.202,-0.054 0.197,-0.035C0.196,-0.029 0.193,-0.022 0.188,-0.013C0.184,-0.005 0.179,0.003 0.173,0.011C0.167,0.018 0.161,0.025 0.153,0.03C0.145,0.035 0.137,0.038 0.129,0.038C0.123,0.038 0.118,0.036 0.114,0.033C0.11,0.03 0.106,0.026 0.103,0.021C0.101,0.016 0.098,0.01 0.097,0.004C0.095,-0.001 0.095,-0.007 0.095,-0.012L0.095,-0.018C0.095,-0.02 0.095,-0.021 0.096,-0.023ZM0.29,-0.384L0.284,-0.365C0.283,-0.361 0.282,-0.357 0.281,-0.354C0.281,-0.351 0.28,-0.349 0.28,-0.348C0.28,-0.346 0.281,-0.345 0.281,-0.344C0.281,-0.342 0.283,-0.342 0.284,-0.342C0.285,-0.342 0.288,-0.342 0.293,-0.343C0.299,-0.344 0.305,-0.345 0.312,-0.346C0.32,-0.347 0.327,-0.349 0.336,-0.351C0.344,-0.352 0.353,-0.354 0.36,-0.355C0.382,-0.36 0.404,-0.366 0.428,-0.373C0.452,-0.38 0.476,-0.388 0.5,-0.396C0.524,-0.405 0.547,-0.415 0.569,-0.425C0.591,-0.435 0.61,-0.446 0.627,-0.457C0.645,-0.469 0.659,-0.481 0.67,-0.493C0.681,-0.505 0.686,-0.518 0.686,-0.532C0.686,-0.54 0.685,-0.547 0.683,-0.553C0.681,-0.56 0.678,-0.566 0.676,-0.571C0.666,-0.587 0.654,-0.599 0.639,-0.608C0.625,-0.618 0.609,-0.624 0.591,-0.629C0.574,-0.633 0.556,-0.636 0.537,-0.638C0.518,-0.639 0.5,-0.64 0.481,-0.64C0.477,-0.64 0.469,-0.639 0.459,-0.639C0.449,-0.638 0.439,-0.637 0.428,-0.636C0.417,-0.635 0.407,-0.634 0.398,-0.633C0.388,-0.631 0.382,-0.629 0.379,-0.627C0.377,-0.626 0.376,-0.625 0.375,-0.623C0.374,-0.62 0.373,-0.618 0.372,-0.617C0.369,-0.61 0.366,-0.601 0.361,-0.59C0.357,-0.578 0.352,-0.565 0.347,-0.551C0.341,-0.536 0.336,-0.521 0.33,-0.505C0.325,-0.489 0.319,-0.474 0.314,-0.459C0.309,-0.444 0.304,-0.429 0.3,-0.416C0.295,-0.403 0.292,-0.392 0.29,-0.384Z" style="fill:rgb(0,191,166);fill-rule:nonzero;"/>
    </g>
</svg>
